HIERARCHY
ROOT Hips
{
  OFFSET 5.80788e-005 67.184 3.4734
  CHANNELS 6 Xposition Yposition Zposition Zrotation Xrotation Yrotation
  JOINT Chest
  {
    OFFSET 0 8.7983 -4.7612
    CHANNELS 3 Zrotation Xrotation Yrotation
    JOINT Chest2
    {
      OFFSET 0 8.0291 0.4195
      CHANNELS 3 Zrotation Xrotation Yrotation
      JOINT Chest3
      {
        OFFSET 0 9.9351 -2.2114
        CHANNELS 3 Zrotation Xrotation Yrotation
        JOINT Neck
        {
          OFFSET 0 22.3885 -0.4656
          CHANNELS 3 Zrotation Xrotation Yrotation
          JOINT Head
          {
            OFFSET -0.0001 12.643 3.4389
            CHANNELS 3 Zrotation Xrotation Yrotation
            End Site
            {
              OFFSET 0.0001 17.6655 0.5274
            }
          }
        }
        JOINT LeftCollar
        {
          OFFSET 2.2603 21.606 7.4023
          CHANNELS 3 Zrotation Xrotation Yrotation
          JOINT LeftShoulder
          {
            OFFSET 13.5163 -1.1332 -5.0146
            CHANNELS 3 Zrotation Xrotation Yrotation
            JOINT LeftElbow
            {
              OFFSET -0.0995 -28.05 -0.2431
              CHANNELS 3 Zrotation Xrotation Yrotation
              JOINT LeftWrist
              {
                OFFSET 0.0679 -23.3996 -0.1402
                CHANNELS 3 Zrotation Xrotation Yrotation
                JOINT LeftFinger1
                {
                  OFFSET 0.7932 -9.069 2.5189
                  CHANNELS 3 Zrotation Xrotation Yrotation
                  JOINT LeftFinger11
                  {
                    OFFSET -0.8272 -3.3923 0.5977
                    CHANNELS 3 Zrotation Xrotation Yrotation
                    JOINT LeftFinger12
                    {
                      OFFSET -0.5649 -2.3158 0.4082
                      CHANNELS 3 Zrotation Xrotation Yrotation
                      End Site
                      {
                        OFFSET -0.4919 -1.6479 0.2673
                      }
                    }
                  }
                }
                JOINT LeftFinger2
                {
                  OFFSET 0.9159 -9.2044 0.2193
                  CHANNELS 3 Zrotation Xrotation Yrotation
                  JOINT LeftFinger21
                  {
                    OFFSET 0.0117 -4.1944 -0.0248
                    CHANNELS 3 Zrotation Xrotation Yrotation
                    JOINT LeftFinger22
                    {
                      OFFSET 0.0071 -2.3249 -0.0142
                      CHANNELS 3 Zrotation Xrotation Yrotation
                      End Site
                      {
                        OFFSET -0.1475 -2.0882 0.0028
                      }
                    }
                  }
                }
                JOINT LeftFinger3
                {
                  OFFSET 0.6113 -8.7231 -2.0637
                  CHANNELS 3 Zrotation Xrotation Yrotation
                  JOINT LeftFinger31
                  {
                    OFFSET -0.1927 -3.8059 -0.2383
                    CHANNELS 3 Zrotation Xrotation Yrotation
                    JOINT LeftFinger32
                    {
                      OFFSET -0.1091 -2.1688 -0.1362
                      CHANNELS 3 Zrotation Xrotation Yrotation
                      End Site
                      {
                        OFFSET -0.2358 -1.9176 -0.0906
                      }
                    }
                  }
                }
                JOINT LeftFinger4
                {
                  OFFSET -0.6151 -8.0947 -3.5641
                  CHANNELS 3 Zrotation Xrotation Yrotation
                  JOINT LeftFinger41
                  {
                    OFFSET -0.4882 -2.341 -0.6462
                    CHANNELS 3 Zrotation Xrotation Yrotation
                    JOINT LeftFinger42
                    {
                      OFFSET -0.3575 -1.7167 -0.4742
                      CHANNELS 3 Zrotation Xrotation Yrotation
                      End Site
                      {
                        OFFSET -0.4187 -1.5237 -0.3496
                      }
                    }
                  }
                }
                JOINT LeftFinger0
                {
                  OFFSET -1.42 -1.8761 1.4223
                  CHANNELS 3 Zrotation Xrotation Yrotation
                  JOINT LeftFinger01
                  {
                    OFFSET -1.1471 -3.4929 2.6334
                    CHANNELS 3 Zrotation Xrotation Yrotation
                    JOINT LeftFinger02
                    {
                      OFFSET -0.823 -2.3 1.6571
                      CHANNELS 3 Zrotation Xrotation Yrotation
                      End Site
                      {
                        OFFSET -0.5822 -1.6914 1.1582
                      }
                    }
                  }
                }
              }
            }
          }
        }
        JOINT RightCollar
        {
          OFFSET -2.2603 21.606 7.4023
          CHANNELS 3 Zrotation Xrotation Yrotation
          JOINT RightShoulder
          {
            OFFSET -13.5187 -1.1334 -5.0155
            CHANNELS 3 Zrotation Xrotation Yrotation
            JOINT RightElbow
            {
              OFFSET 0.0994 -28.0499 -0.2431
              CHANNELS 3 Zrotation Xrotation Yrotation
              JOINT RightWrist
              {
                OFFSET -0.0679 -23.3996 -0.1402
                CHANNELS 3 Zrotation Xrotation Yrotation
                JOINT RightFinger1
                {
                  OFFSET -0.7932 -9.0691 2.5189
                  CHANNELS 3 Zrotation Xrotation Yrotation
                  JOINT RightFinger11
                  {
                    OFFSET 0.8272 -3.3923 0.5977
                    CHANNELS 3 Zrotation Xrotation Yrotation
                    JOINT RightFinger12
                    {
                      OFFSET 0.565 -2.3158 0.4082
                      CHANNELS 3 Zrotation Xrotation Yrotation
                      End Site
                      {
                        OFFSET 0.4919 -1.6479 0.2673
                      }
                    }
                  }
                }
                JOINT RightFinger2
                {
                  OFFSET -0.916 -9.2044 0.2193
                  CHANNELS 3 Zrotation Xrotation Yrotation
                  JOINT RightFinger21
                  {
                    OFFSET -0.0117 -4.1944 -0.0248
                    CHANNELS 3 Zrotation Xrotation Yrotation
                    JOINT RightFinger22
                    {
                      OFFSET -0.0071 -2.3249 -0.0142
                      CHANNELS 3 Zrotation Xrotation Yrotation
                      End Site
                      {
                        OFFSET 0.1475 -2.0882 0.0028
                      }
                    }
                  }
                }
                JOINT RightFinger3
                {
                  OFFSET -0.6113 -8.7231 -2.0637
                  CHANNELS 3 Zrotation Xrotation Yrotation
                  JOINT RightFinger31
                  {
                    OFFSET 0.1927 -3.8059 -0.2383
                    CHANNELS 3 Zrotation Xrotation Yrotation
                    JOINT RightFinger32
                    {
                      OFFSET 0.1091 -2.1688 -0.1362
                      CHANNELS 3 Zrotation Xrotation Yrotation
                      End Site
                      {
                        OFFSET 0.2358 -1.9176 -0.0906
                      }
                    }
                  }
                }
                JOINT RightFinger4
                {
                  OFFSET 0.6151 -8.0947 -3.564
                  CHANNELS 3 Zrotation Xrotation Yrotation
                  JOINT RightFinger41
                  {
                    OFFSET 0.4882 -2.341 -0.6462
                    CHANNELS 3 Zrotation Xrotation Yrotation
                    JOINT RightFinger42
                    {
                      OFFSET 0.3574 -1.7166 -0.4742
                      CHANNELS 3 Zrotation Xrotation Yrotation
                      End Site
                      {
                        OFFSET 0.4187 -1.5237 -0.3496
                      }
                    }
                  }
                }
                JOINT RightFinger0
                {
                  OFFSET 1.4199 -1.8761 1.4221
                  CHANNELS 3 Zrotation Xrotation Yrotation
                  JOINT RightFinger01
                  {
                    OFFSET 1.1472 -3.4929 2.6336
                    CHANNELS 3 Zrotation Xrotation Yrotation
                    JOINT RightFinger02
                    {
                      OFFSET 0.8229 -2.3 1.6571
                      CHANNELS 3 Zrotation Xrotation Yrotation
                      End Site
                      {
                        OFFSET 0.5822 -1.6914 1.1582
                      }
                    }
                  }
                }
              }
            }
          }
        }
      }
    }
  }
  JOINT RightHip
  {
    OFFSET -9.412 3.9771 -0.7758
    CHANNELS 3 Zrotation Xrotation Yrotation
    JOINT RightKnee
    {
      OFFSET -0.7531 -40.938 0
      CHANNELS 3 Zrotation Xrotation Yrotation
      JOINT RightAnkle
      {
        OFFSET 0 -40.1986 0
        CHANNELS 3 Zrotation Xrotation Yrotation
        JOINT RightToe
        {
          OFFSET 0 -4.4182 9.239
          CHANNELS 3 Zrotation Xrotation Yrotation
          End Site
          {
            OFFSET 0 0 6.1981
          }
        }
      }
    }
  }
  JOINT LeftHip
  {
    OFFSET 9.4119 3.9773 -0.7758
    CHANNELS 3 Zrotation Xrotation Yrotation
    JOINT LeftKnee
    {
      OFFSET 0.7532 -40.9383 0
      CHANNELS 3 Zrotation Xrotation Yrotation
      JOINT LeftAnkle
      {
        OFFSET 0 -40.1986 0
        CHANNELS 3 Zrotation Xrotation Yrotation
        JOINT LeftToe
        {
          OFFSET 0 -4.4182 9.239
          CHANNELS 3 Zrotation Xrotation Yrotation
          End Site
          {
            OFFSET 0 0 6.1981
          }
        }
      }
    }
  }
}
MOTION
Frames:	4
Frame Time:	0.0333333
5.80788e-005 67.184 3.4734 0 0 -0 0 0 -0 0 0 -0 0 0 -0 0 0 -0 0 0 -0 0 0 -12.5014 88.1196 14.2451 10.6914 -0.00160068 -0.00239207 0.000740045 -8.4365e-005 7.00714e-005 -9.52055e-007 9.93923e-017 -1.98785e-016 -1.59028e-015 9.93923e-017 -5.96354e-016 -1.59028e-015 -9.93923e-017 -5.96354e-016 -1.59028e-015 9.93923e-017 -1.98785e-016 -1.59028e-015 -0.0128176 0.00232552 8.52707e-005 9.93923e-017 5.96354e-016 -0 9.93923e-017 -1.98785e-016 -1.59028e-015 -0.0160551 0.00299681 0.000857156 -2.48481e-016 0 3.18055e-015 9.93923e-017 -1.98785e-016 -1.59028e-015 -0.0125865 0.0031206 0.00282719 0 1.98785e-016 -0 9.93923e-017 -1.98785e-016 -1.59028e-015 9.93923e-017 -5.96354e-016 -1.59028e-015 -9.93923e-017 -5.96354e-016 -1.59028e-015 -0.865644 0.16582 7.03859 -88.0329 10.2057 -10.5567 0.0015593 -0.00248883 -0.000788628 7.87605e-005 4.10553e-005 1.24965e-005 -3.97569e-016 -7.95139e-016 3.18055e-015 -1.98785e-016 -3.97569e-016 3.18055e-015 -1.98785e-016 0 3.18055e-015 -3.97569e-016 -7.95139e-016 3.18055e-015 0.0129473 0.00231697 -8.70038e-005 9.93923e-017 -7.95139e-016 1.59028e-015 -3.97569e-016 -7.95139e-016 3.18055e-015 0.0163314 0.00303369 -0.000872333 3.97569e-016 7.95139e-016 -3.18055e-015 -3.97569e-016 -7.95139e-016 3.18055e-015 0.0145763 0.00367772 -0.00326275 9.93923e-017 -3.97569e-016 -0 -3.97569e-016 -7.95139e-016 3.18055e-015 -1.98785e-016 -3.97569e-016 3.18055e-015 -1.98785e-016 0 3.18055e-015 3.42485 1.36937 -0.0640303 0.000136572 0.69354 0.00145564 -3.42573 -2.06297 -0.0607933 -3.19502e-024 0 -1.48106e-024 -3.42498 1.36123 0.0639712 -6.769e-005 0.712612 -0.0012277 3.42582 -2.07388 0.0612819 2.55305e-023 0 -2.31416e-026 
1.59796 21.6348 26.8634 -0.000446941 -23.0014 179.999 0.0153994 4.38955 -0.0486558 0.0347038 8.77911 -0.0989365 0.034704 8.77914 -0.098937 -1.21115e-007 -0.2116 3.30261e-007 -0.0646943 -0.487865 -0.000271798 -33.0425 -14.1589 -14.1768 69.0736 -24.9251 18.4183 -64.7469 -10.1175 -44.1156 56.6472 -38.8426 10.5047 1.59028e-015 -7.95139e-016 5.76476e-015 3.18055e-015 1.59028e-015 -7.95139e-016 1.59028e-015 2.38542e-015 2.48481e-015 1.59028e-015 -7.95139e-016 5.76476e-015 -0.0128216 0.00231657 9.0221e-005 1.59028e-015 -7.95139e-016 2.88238e-015 1.59028e-015 -7.95139e-016 5.76476e-015 -0.0160526 0.00298751 0.000859108 -1.59028e-015 7.95139e-016 -6.95746e-016 1.59028e-015 -7.95139e-016 5.76476e-015 -0.0125811 0.00311111 0.00282872 1.51728e-031 1.59028e-015 -5.46658e-015 1.59028e-015 -7.95139e-016 5.76476e-015 3.18055e-015 1.59028e-015 -7.95139e-016 1.59028e-015 2.38542e-015 2.48481e-015 28.9924 -17.4769 6.12514 -68.3036 -30.8326 -17.3789 73.9985 -14.0658 47.1622 -36.9317 2.84136 -46.643 7.95139e-016 6.36111e-015 3.97569e-015 -1.59028e-015 9.54166e-015 3.97569e-015 -7.95139e-016 1.90833e-014 7.95139e-016 7.95139e-016 6.36111e-015 3.97569e-015 0.0129605 0.00232212 -9.3637e-005 1.59028e-015 6.36111e-015 -3.97569e-015 7.95139e-016 6.36111e-015 3.97569e-015 0.0163395 0.00303827 -0.000870434 2.64834e-031 9.54166e-015 -1.59028e-015 7.95139e-016 6.36111e-015 3.97569e-015 0.014573 0.00368475 -0.00325841 1.59028e-015 0 3.97569e-015 7.95139e-016 6.36111e-015 3.97569e-015 -1.59028e-015 9.54166e-015 3.97569e-015 -7.95139e-016 1.90833e-014 7.95139e-016 -10.6104 -43.5045 -27.9119 -174.053 58.693 170.256 16.5708 34.0125 -27.8034 -4.77083e-015 -6.36111e-015 6.36111e-015 12.7049 -44.4645 25.14 173.721 58.0007 -169.778 -17.8727 35.8945 24.3547 7.6248e-006 7.8551e-006 -2.52359e-006 
1.598 21.6609 26.5447 -0.000380118 -21.8901 179.999 0.0145219 4.26843 -0.0488106 0.0328394 8.53687 -0.0991242 0.0328395 8.5369 -0.0991245 1.07052e-007 -0.420683 -4.09214e-007 -0.123803 -0.966119 -0.0221934 -32.4286 -12.0183 -14.8592 69.0736 -24.9251 18.4183 -63.6176 -10.0049 -43.852 57.9975 -37.9635 12.5909 1.4059e-006 -1.10953e-005 1.68175e-006 -3.32145e-006 1.08036e-005 -2.33458e-007 -2.42521e-006 -1.00719e-006 4.57834e-006 1.4059e-006 -1.10953e-005 1.68175e-006 -0.0128253 0.00232941 8.61321e-005 1.76037e-006 2.56609e-006 4.59265e-006 1.4059e-006 -1.10953e-005 1.68175e-006 -0.0160443 0.00301109 0.000853912 5.75222e-007 -7.71284e-006 1.62343e-006 1.4059e-006 -1.10953e-005 1.68175e-006 -0.0125948 0.00312397 0.00282945 3.89654e-006 -7.93776e-008 1.85714e-006 1.4059e-006 -1.10953e-005 1.68175e-006 -3.32145e-006 1.08036e-005 -2.33458e-007 -2.42521e-006 -1.00719e-006 4.57834e-006 28.5575 -15.4519 6.69493 -68.3036 -30.8327 -17.3789 72.516 -14.1276 46.6829 -36.738 2.60268 -48.2887 6.36111e-015 0 -6.36111e-015 3.97569e-015 -3.18055e-015 -0 1.59028e-015 0 -3.18055e-015 6.36111e-015 0 -6.36111e-015 0.0129699 0.0023152 -8.73031e-005 -1.59028e-015 0 -0 6.36111e-015 0 -6.36111e-015 0.0163489 0.00304215 -0.000878954 2.38542e-015 0 -3.97569e-015 6.36111e-015 0 -6.36111e-015 0.014586 0.00368235 -0.00326533 -7.95139e-016 9.54166e-015 -3.97569e-015 6.36111e-015 0 -6.36111e-015 3.97569e-015 -3.18055e-015 -0 1.59028e-015 0 -3.18055e-015 -10.2007 -42.1097 -27.3555 -174.012 59.0101 170.24 16.5599 34.0248 -27.7852 -3.73254e-006 2.91534e-006 7.30935e-008 12.3065 -43.0604 24.5906 173.682 58.3156 -169.764 -17.8608 35.9071 24.3358 -1.75754e-006 6.00853e-006 2.75348e-006 
1.59806 21.6902 26.2268 -0.000359033 -20.7822 179.999 0.0136733 4.14696 -0.0488723 0.0310264 8.29391 -0.0991312 0.0310265 8.29392 -0.0991314 -9.17834e-008 -0.629943 3.97025e-007 -0.183188 -1.44504 -0.0446448 -31.7887 -9.87005 -15.5651 69.0736 -24.9251 18.4183 -62.4875 -9.88716 -43.5904 59.2954 -37.0435 14.6332 4.77083e-015 -7.95139e-016 5.96354e-016 6.7683e-007 -1.19581e-005 -9.17048e-006 -6.76832e-007 1.19581e-005 9.17048e-006 4.77083e-015 -7.95139e-016 5.96354e-016 -0.0128357 0.00231492 7.67579e-005 3.18055e-015 -7.95139e-016 4.57205e-015 4.77083e-015 -7.95139e-016 5.96354e-016 -0.0160394 0.00298664 0.000853289 -4.77083e-015 0 -1.21259e-014 4.77083e-015 -7.95139e-016 5.96354e-016 -0.0125791 0.0031175 0.00281955 1.9035e-031 -2.38542e-015 4.57205e-015 4.77083e-015 -7.95139e-016 5.96354e-016 6.7683e-007 -1.19581e-005 -9.17048e-006 -6.76832e-007 1.19581e-005 9.17048e-006 28.1031 -13.4194 7.27892 -68.3035 -30.8326 -17.3789 71.0301 -14.1773 46.2009 -36.5506 2.35722 -49.9387 -7.95139e-016 9.54166e-015 2.38542e-015 -1.59028e-015 3.18055e-015 -7.15625e-015 -2.38542e-015 -3.18055e-015 7.95139e-016 -7.95139e-016 9.54166e-015 2.38542e-015 0.0129691 0.00232548 -8.76976e-005 -1.59028e-015 0 -7.95139e-016 -7.95139e-016 9.54166e-015 2.38542e-015 0.0163576 0.00304031 -0.00088273 7.95139e-016 9.54166e-015 -4.77083e-015 -7.95139e-016 9.54166e-015 2.38542e-015 0.0145883 0.00368767 -0.00327008 -5.56597e-015 -6.36111e-015 -3.18055e-015 -7.95139e-016 9.54166e-015 2.38542e-015 -1.59028e-015 3.18055e-015 -7.15625e-015 -2.38542e-015 -3.18055e-015 7.95139e-016 -9.81492 -40.7088 -26.8218 -173.971 59.3271 170.222 16.5492 34.0369 -27.7671 -7.98143e-006 1.2682e-006 -5.27452e-007 11.9341 -41.6471 24.0655 173.639 58.6326 -169.748 -17.8491 35.9195 24.3171 -9.86884e-007 -3.20219e-006 -1.34121e-006 
